# xmcd CD database file
#
# Track frame offsets:
#	150
#	12975
#	23072
#	35137
#	43834
#	53496
#	63511
#	76037
#	87626
#	101051
#	110841
#	122936
#	134145
#	145313
#	153551
#	163488
#	179583
#	191794
#	201258
#	209446
#	225943
#	239489
#	258507
#	272279
#	286095
#	298559
#	310891
#
# Disc length: 4333 seconds
#
# Revision: 0
# Processed by: cddbd v1.5.2PL0 Copyright (c) Steve Scherf et al.
# Submitted via: CDex 1.70beta2
#
DISCID=9f10eb1b
DTITLE=Various Artist - That Devilin' Tune (A Jazz History) Volume 1 [CD1)
DYEAR=2006
DGENRE=Jazz
TTITLE0=Standard Quartette - Who Broke The Lock
TTITLE1=Voss' 1st Regiment Band - Aunt Dinah's Supper Party
TTITLE2=Len Spencer - Clime De Golden Fence
TTITLE3=Metropolitan Orchestra - Coon Town Capers
TTITLE4=Sousa Band - Whistlin' Rufus
TTITLE5=Len Spencer - You've Been A Good Old Wagon
TTITLE6=Williams and Walker - My Little Zulu Babe
TTITLE7=Arthur Collins - Bill Bailey
TTITLE8=Len Spencer - On Emancipation Day
TTITLE9=Hager's Orchestra - Rooster Dance
TTITLE10=Vess Ossman - Buffalo Rag
TTITLE11=Prince's Orchestra - St Louis Tickle
TTITLE12=Pryor's Band - St Louis Rag
TTITLE13=Orquestra Typicas - La Patti Negra
TTITLE14=Sir Herbert Clarke - Bride Of The Waves
TTITLE15=May Irwin - When You Ain't Got No Money
TTITLE16=Arthur Collins - Parson Jones' Three Reason
TTITLE17=Steela May and Billie Taylor - That Beautiful Rag
TTITLE18=Sophie Tucker - That Lovin' Rag
TTITLE19=Stella Mayhew - That Devlin' Tune
TTITLE20=Collins and Harlan - Alexander's Ragtime Band
TTITLE21=Sophie Tucker - Some Of These Days
TTITLE22=Grupo Bahianainho - El Cavito
TTITLE23=Grupo Bahianainho - Bambino
TTITLE24=Grupo Bahianainho - Destimido
TTITLE25=Prince's Orchestra - Red Pepper Rag
TTITLE26=Gene Greene - King Of The Bungaloos
EXTD=YEAR: 2006
EXTT0=
EXTT1=
EXTT2=
EXTT3=
EXTT4=
EXTT5=
EXTT6=
EXTT7=
EXTT8=
EXTT9=
EXTT10=
EXTT11=
EXTT12=
EXTT13=
EXTT14=
EXTT15=
EXTT16=
EXTT17=
EXTT18=
EXTT19=
EXTT20=
EXTT21=
EXTT22=
EXTT23=
EXTT24=
EXTT25=
EXTT26=
PLAYORDER=
